<svg xmlns="http://www.w3.org/2000/svg" width="1400" height="560" viewBox="0 0 1400 560" fill="none">
  <defs>
    <linearGradient id="tileFill" x1="298" y1="77" x2="725" y2="482" gradientUnits="userSpaceOnUse">
      <stop offset="0" stop-color="#2A4150"/>
      <stop offset="0.55" stop-color="#223746"/>
      <stop offset="1" stop-color="#1C2F3D"/>
    </linearGradient>

    <radialGradient id="tileGlow" cx="0" cy="0" r="1" gradientUnits="userSpaceOnUse"
      gradientTransform="translate(512 279.5) rotate(90) scale(230 235)">
      <stop offset="0" stop-color="#355162" stop-opacity="0.18"/>
      <stop offset="1" stop-color="#355162" stop-opacity="0"/>
    </radialGradient>

    <linearGradient id="cyanBar" x1="350" y1="141" x2="674" y2="206" gradientUnits="userSpaceOnUse">
      <stop offset="0" stop-color="#39B8CC"/>
      <stop offset="1" stop-color="#4BC3D2"/>
    </linearGradient>

    <linearGradient id="blueBar" x1="350" y1="247" x2="499" y2="312" gradientUnits="userSpaceOnUse">
      <stop offset="0" stop-color="#6486A6"/>
      <stop offset="1" stop-color="#6E90AF"/>
    </linearGradient>

    <linearGradient id="cyanMid" x1="461" y1="247" x2="674" y2="312" gradientUnits="userSpaceOnUse">
      <stop offset="0" stop-color="#3EB9CB"/>
      <stop offset="1" stop-color="#48C0D0"/>
    </linearGradient>

    <linearGradient id="bottomBar" x1="350" y1="353" x2="674" y2="418" gradientUnits="userSpaceOnUse">
      <stop offset="0" stop-color="#6486A6"/>
      <stop offset="1" stop-color="#6F91B0"/>
    </linearGradient>

    <filter id="softShadow" x="270" y="54" width="483" height="456" filterUnits="userSpaceOnUse" color-interpolation-filters="sRGB">
      <feDropShadow dx="0" dy="8" stdDeviation="10" flood-color="#15242D" flood-opacity="0.14"/>
    </filter>
  </defs>

  <g filter="url(#softShadow)">
    <path d="M344 77H680L725 122V437L680 482H344L298 437V122L344 77Z" fill="url(#tileFill)"/>
    <path d="M344 77H680L725 122V437L680 482H344L298 437V122L344 77Z" fill="url(#tileGlow)"/>

    <rect x="350" y="141" width="324" height="65" rx="2" fill="url(#cyanBar)"/>
    <path d="M350 247H447L499 312H350V247Z" fill="url(#blueBar)"/>
    <path d="M461 247H674V312H512L461 247Z" fill="url(#cyanMid)"/>
    <rect x="350" y="353" width="324" height="65" rx="2" fill="url(#bottomBar)"/>
  </g>

  <g fill="#2B4350" transform="translate(758 313) scale(0.0712890625 -0.0712890625)">
    <path d="M150 0H417V547H695L988 0H1287L964 592C1140 662 1232 811 1232 1013C1232 1297 1050 1490 707 1490H150ZM417 768V1266H666C869 1266 959 1172 959 1013C959 855 869 768 668 768Z"/>
    <path d="M1486 0H2411V225H1753V1490H1486Z"/>
    <path d="M2632 0H2892V1118H2632ZM2762 1276C2845 1276 2914 1340 2914 1419C2914 1498 2845 1561 2762 1561C2679 1561 2611 1498 2611 1419C2611 1340 2679 1276 2762 1276Z"/>
    <path d="M3080 0H3361L3499 224C3543 298 3576 369 3609 437C3644 369 3679 298 3723 224L3861 0H4145L3774 568L4128 1118H3848L3730 928C3685 853 3650 779 3616 710C3581 779 3546 852 3502 928L3388 1118H3102L3450 574Z"/>
  </g>
</svg>